<svg xmlns="http://www.w3.org/2000/svg" viewBox="0 0 566.93 354.33"><defs><style>.cls-1,.cls-2{fill:#5e2678;}.cls-1{opacity:0.11;isolation:isolate;}.cls-3{fill:#f6f6f6;}.cls-18,.cls-4{fill:#fff;}.cls-5{fill:#9ed7e8;}.cls-6{fill:#65b1cd;}.cls-7{fill:#fcc804;}.cls-8{fill:#a81d79;}.cls-9{fill:#b3adc8;}.cls-10{fill:#dadada;}.cls-11{fill:#a71f79;}.cls-12{fill:#104f9d;}.cls-13{fill:#fcc801;}.cls-14{fill:#087e36;}.cls-15{fill:#e5077e;}.cls-16{fill:#a079af;}.cls-17{fill:#3c3c3b;}.cls-18{opacity:0.17;}.cls-19{fill:#c6a58a;}.cls-20{fill:#482562;}.cls-21{fill:#ededed;}.cls-22{fill:#a93b1e;}.cls-23{fill:#0280af;}.cls-24{fill:#109bc6;}.cls-25{fill:#c6c6c6;}</style></defs><g id="Consumenten"><path id="Path_526" data-name="Path 526" class="cls-1" d="M193.45,326.44c.25,16.57-149.52,18.07-152.39,0C40.81,309.86,190.58,308.37,193.45,326.44Z"/><path id="Path_526-2" data-name="Path 526" class="cls-1" d="M528.11,292.46c.68,19.16-408.16,20.89-416,0C111.43,273.31,520.27,271.58,528.11,292.46Z"/><g id="Laptop"><rect id="Binnenkant_scherm" data-name="Binnenkant scherm" class="cls-2" x="166.67" y="60.18" width="306.65" height="198.68" rx="7.03"/><rect id="Display" class="cls-3" x="179.45" y="73.83" width="280.93" height="173.45"/><circle id="camera" class="cls-4" cx="320.15" cy="66.93" r="3.61"/><path id="body" class="cls-5" d="M526.23,267.63l-412.15-.06s53-10.55,57.31-10.55h296C471.71,257,526.23,267.63,526.23,267.63Z"/><path id="Voorkant" class="cls-6" d="M115.38,267.3H524.61a3.51,3.51,0,0,1,3.51,3.51v3.39a10.73,10.73,0,0,1-10.73,10.73H122.61a10.73,10.73,0,0,1-10.73-10.73v-3.39a3.51,3.51,0,0,1,3.51-3.51Z"/><g id="Laag_43" data-name="Laag 43"><rect class="cls-4" x="196.25" y="84.53" width="69.79" height="69.79"/><rect class="cls-7" x="196.25" y="159.54" width="6.75" height="6.75"/><rect class="cls-2" x="205.77" y="159.54" width="6.75" height="6.75"/></g><g id="Laag_43_kopie" data-name="Laag 43 kopie"><rect class="cls-4" x="285.26" y="84.53" width="69.79" height="69.79"/><rect class="cls-8" x="285.26" y="159.54" width="6.75" height="6.75"/><rect class="cls-2" x="294.78" y="159.54" width="6.75" height="6.75"/><rect class="cls-9" x="304.3" y="159.54" width="6.75" height="6.75"/><g id="SAdN2d"><path class="cls-10" d="M315.27,89.41c.48-.49,1-1,1.45-1.54a2.52,2.52,0,0,1,2.34-.72,3,3,0,0,1,2.66,3,3,3,0,0,1-.8,2l-1.13,1.37a1.07,1.07,0,0,0-.33.81v1.78c0,.32-.08.24.25.24a4.81,4.81,0,0,1,3.39,1.86c.64.8,1.29,1.69,1.94,2.58a10,10,0,0,0,1.69,2,17,17,0,0,0,3.15,2.18c2.5,1.37,5.09,2.66,7.59,4a19.67,19.67,0,0,1,2.82,1.69,4.37,4.37,0,0,1,1.94,3.39v.49c0,.08-.08.16-.16.08s-.16-.08-.24-.16a1.16,1.16,0,0,0-.73-.17c-3.31,0-6.62,0-9.85-.08-6.38,0-12.75,0-19.13.08h-8.88c-2,0-4,0-6.06.08a.27.27,0,0,0-.24.09c-.16.08-.24.16-.41.16s-.32.08-.32-.25a2.21,2.21,0,0,1,.08-.72,5.12,5.12,0,0,1,2-3.07c1.05-.73,2.18-1.37,3.31-2,2.42-1.29,4.85-2.5,7.27-3.79a18.27,18.27,0,0,0,2.9-2,10,10,0,0,0,1.62-2c.56-.81,1.13-1.61,1.69-2.34a5.44,5.44,0,0,1,3.8-2.1c.16,0,.16-.08.16-.16v-1.7a2,2,0,0,1,.49-1.29c.4-.4.72-.89,1.13-1.29a2.5,2.5,0,0,0,.64-1.94,2.46,2.46,0,0,0-1.61-2.1,2.36,2.36,0,0,0-2.67.65c-.24.32-.56.56-.81.89a2.12,2.12,0,0,0-.4.48.11.11,0,0,1-.16,0l-.24-.24C315.19,89.49,315.27,89.41,315.27,89.41Zm-16.31,24h14.37c2.9,0,5.89-.09,8.8-.09H340l-.72-.48c-3.32-2-6.63-4-9.94-6-1.85-1.13-3.63-2.27-5.49-3.4-1.45-.88-2.9-1.69-4.27-2.58-.25-.16-.33-.16-.57,0l-14.29,8.72c-1.94,1.21-4,2.42-5.89,3.63l-.09.08C298.71,113.39,298.88,113.39,299,113.39Zm17.76-25.28a2.89,2.89,0,0,1,1.78-.88h.16a3.22,3.22,0,0,0-1.21.24,2.27,2.27,0,0,0-1,.81,8.66,8.66,0,0,0-.89,1c-.08.09-.08.17-.16.17h0C315.83,89.08,316.23,88.6,316.72,88.11Zm2.58,5.25h0a17.9,17.9,0,0,0,1.62-1.94A17.9,17.9,0,0,1,319.3,93.36Z"/><path class="cls-10" d="M315.35,89.57a17.12,17.12,0,0,1,1.29-1.37,2.85,2.85,0,0,1,1.77-.89h.17a3.22,3.22,0,0,0-1.21.24,2.27,2.27,0,0,0-1,.81,7.91,7.91,0,0,0-.89,1c-.08.08-.08.16-.16.24Z"/><path class="cls-10" d="M320.92,91.51c-.57.64-1.05,1.29-1.62,1.93h.08C319.87,92.8,320.51,92.15,320.92,91.51Z"/></g><path id="mouw" class="cls-11" d="M297.83,110.52c2.82-1.93,2.82-1.93,4.48-3.15,4.62,2.48,4.75,6.23,4.47,8.09,0,0-.48,2.21-.62,3C304,115.26,299.07,112.93,297.83,110.52Z"/><path id="top" class="cls-11" d="M304.71,145.76c-1.17-13.58-1.57-22.4-2.4-38.39a28.75,28.75,0,0,1,5.37-2s1.65,10.2,11.85,10,11.11-10,11.11-10c3.1.9,3.86.91,6.07,1.67.48,1.69,1.35,4,1.23,3.68,0,3-1.52,3.47-2.35,3.47-.13,3.93-.61,20.15-.55,32.63C327.65,150.62,311.78,149.66,304.71,145.76Z"/><path id="mouw-2" data-name="mouw" class="cls-11" d="M341.24,111.09c-2.19-1.32-2.82-3.52-4.53-4L332.49,106c.48,1.79-1,3.24-.89,4.83a34.06,34.06,0,0,0,.75,3.92c.21.9,2,1.63,2,1.63C337.3,113.89,339.85,112.4,341.24,111.09Z"/></g><g id="Laag_43_kopie_2" data-name="Laag 43 kopie 2"><rect class="cls-4" x="374.28" y="84.53" width="69.79" height="69.79"/><rect class="cls-12" x="374.1" y="159.54" width="6.75" height="6.75"/><rect class="cls-13" x="383.62" y="159.54" width="6.75" height="6.75"/><rect class="cls-14" x="393.14" y="159.54" width="6.75" height="6.75"/><g id="SAdN2d-2" data-name="SAdN2d"><path class="cls-10" d="M404.11,89.41c.48-.49,1-1,1.45-1.54a2.52,2.52,0,0,1,2.34-.72,3,3,0,0,1,2.67,3,3,3,0,0,1-.81,2l-1.13,1.37a1.07,1.07,0,0,0-.33.81v1.78c0,.32-.08.24.25.24a4.81,4.81,0,0,1,3.39,1.86c.64.8,1.29,1.69,1.94,2.58a10,10,0,0,0,1.69,2,17,17,0,0,0,3.15,2.18c2.5,1.37,5.09,2.66,7.59,4a19.67,19.67,0,0,1,2.82,1.69,4.34,4.34,0,0,1,1.94,3.39v.49c0,.08-.08.16-.16.08s-.16-.08-.24-.16a1.16,1.16,0,0,0-.73-.17c-3.31,0-6.62,0-9.85-.08-6.38,0-12.75,0-19.13.08h-8.88c-2,0-4,0-6.06.08a.27.27,0,0,0-.24.09c-.16.08-.24.16-.41.16s-.32.08-.32-.25a2.21,2.21,0,0,1,.08-.72,5.12,5.12,0,0,1,2-3.07c1.05-.73,2.18-1.37,3.31-2,2.42-1.29,4.85-2.5,7.27-3.79a18.27,18.27,0,0,0,2.9-2,10,10,0,0,0,1.62-2c.56-.81,1.13-1.61,1.69-2.34a5.44,5.44,0,0,1,3.8-2.1c.16,0,.16-.08.16-.16v-1.7a2,2,0,0,1,.49-1.29c.4-.4.72-.89,1.13-1.29a2.5,2.5,0,0,0,.64-1.94,2.46,2.46,0,0,0-1.61-2.1,2.36,2.36,0,0,0-2.67.65c-.24.32-.56.56-.81.89a2.12,2.12,0,0,0-.4.48.11.11,0,0,1-.16,0l-.24-.24C404,89.49,404.11,89.41,404.11,89.41Zm-16.31,24h14.37c2.9,0,5.89-.09,8.8-.09h17.84l-.72-.48c-3.32-2-6.63-4-9.94-6-1.85-1.13-3.63-2.27-5.49-3.4-1.45-.88-2.9-1.69-4.27-2.58-.25-.16-.33-.16-.57,0l-14.29,8.72c-1.94,1.21-4,2.42-5.89,3.63l-.09.08C387.55,113.39,387.72,113.39,387.8,113.39Zm17.76-25.28a2.89,2.89,0,0,1,1.78-.88h.16a3.22,3.22,0,0,0-1.21.24,2.27,2.27,0,0,0-1,.81,8.66,8.66,0,0,0-.89,1c-.08.09-.08.17-.16.17h0C404.67,89.08,405.07,88.6,405.56,88.11Zm2.58,5.25h0a17.9,17.9,0,0,0,1.62-1.94A17.9,17.9,0,0,1,408.14,93.36Z"/><path class="cls-10" d="M404.19,89.57a17.12,17.12,0,0,1,1.29-1.37,2.85,2.85,0,0,1,1.77-.89h.17a3.22,3.22,0,0,0-1.21.24,2.27,2.27,0,0,0-1,.81,7.91,7.91,0,0,0-.89,1c-.08.08-.08.16-.16.24Z"/><path class="cls-10" d="M409.76,91.51c-.57.64-1.05,1.29-1.62,1.93h.08C408.71,92.8,409.35,92.15,409.76,91.51Z"/></g><path id="top-2" data-name="top" class="cls-12" d="M393.55,145.76c-1.17-13.58.42-22.7-.41-38.69,1.66-.69,1.38-1.26,3.38-1.67,0,0,8.4,16.61,12.45,16.61s10.51-16.61,10.51-16.61c2.44,1,2.36,1.26,4.07,2-.53,1.69.27,27,.33,39.47C416.49,150.62,400.62,149.66,393.55,145.76Z"/></g><g id="Laag_43_kopie_5" data-name="Laag 43 kopie 5"><polyline class="cls-4" points="196.25 247.28 196.25 187.06 266.04 187.06 266.04 247.28"/><g id="SAdN2d-3" data-name="SAdN2d"><path class="cls-10" d="M226.26,191.94c.48-.49,1-1.05,1.45-1.54a2.55,2.55,0,0,1,2.34-.72,3,3,0,0,1,2.66,3,3,3,0,0,1-.8,2c-.41.49-.73.89-1.13,1.38a1,1,0,0,0-.33.8v1.78c0,.32-.08.24.25.24a4.81,4.81,0,0,1,3.39,1.86c.64.81,1.29,1.69,1.94,2.58a9.7,9.7,0,0,0,1.69,2,17,17,0,0,0,3.15,2.18c2.5,1.37,5.09,2.66,7.59,4a19.67,19.67,0,0,1,2.82,1.69,4.37,4.37,0,0,1,1.94,3.39v.49c0,.08-.08.16-.16.08s-.16-.08-.24-.16a1.22,1.22,0,0,0-.73-.16c-3.31,0-6.62,0-9.85-.08-6.38,0-12.75,0-19.13.08h-8.88c-2,0-4,0-6.06.08a.29.29,0,0,0-.24.08c-.16.08-.24.16-.41.16s-.32.08-.32-.24a2.25,2.25,0,0,1,.08-.73,5.12,5.12,0,0,1,2-3.07c1-.72,2.18-1.37,3.31-2,2.42-1.29,4.85-2.5,7.27-3.79a18.27,18.27,0,0,0,2.9-2,9.71,9.71,0,0,0,1.62-2c.56-.81,1.13-1.61,1.69-2.34a5.54,5.54,0,0,1,3.8-2.1c.16,0,.16-.08.16-.16V197a2,2,0,0,1,.49-1.29c.4-.4.72-.89,1.13-1.29a2.51,2.51,0,0,0-1-4,2.36,2.36,0,0,0-2.67.65c-.24.32-.56.57-.81.89a2.12,2.12,0,0,0-.4.48.11.11,0,0,1-.16,0l-.24-.24C226.18,192,226.26,191.94,226.26,191.94Zm-16.31,24h14.37c2.9,0,5.89-.08,8.8-.08H251l-.72-.49c-3.32-2-6.63-3.95-9.94-6-1.85-1.13-3.63-2.26-5.49-3.39-1.45-.89-2.9-1.7-4.27-2.59-.25-.16-.33-.16-.57,0l-14.29,8.72c-1.94,1.21-4,2.42-5.89,3.64l-.09.08C209.7,215.92,209.87,215.92,210,215.92Zm17.76-25.27a2.85,2.85,0,0,1,1.78-.89h.16a3.22,3.22,0,0,0-1.21.24,2.27,2.27,0,0,0-1,.81,7.91,7.91,0,0,0-.89,1c-.08.08-.08.16-.16.16h0C226.82,191.62,227.22,191.13,227.71,190.65Zm2.58,5.24h0a18.8,18.8,0,0,0,1.62-1.93A18.8,18.8,0,0,1,230.29,195.89Z"/><path class="cls-10" d="M226.34,192.1c.4-.48.88-1,1.29-1.37a2.85,2.85,0,0,1,1.77-.89h.17a3.22,3.22,0,0,0-1.21.24,2.34,2.34,0,0,0-1,.81,7.91,7.91,0,0,0-.89,1c-.08.08-.08.16-.16.24Z"/><path class="cls-10" d="M231.91,194c-.57.64-1,1.29-1.62,1.94h.08C230.86,195.33,231.5,194.68,231.91,194Z"/></g><path class="cls-15" d="M246.81,247.28c0-34,2.84-35.3,2.84-35.3-2.25-.89-10.4-5.19-11.93-6.64-.4.49-3.23,5.47-8.32,5.47s-7.67-4.66-7.67-4.66c-1.37.72-11.28,6.22-12.49,6.46,0,0,3.69.9,5.44,34.67Z"/></g><g id="Laag_43_kopie_4" data-name="Laag 43 kopie 4"><polyline class="cls-4" points="285.26 247.28 285.26 187.06 355.06 187.06 355.06 247.28"/><g id="SAdN2d-4" data-name="SAdN2d"><path class="cls-10" d="M315.27,191.94c.48-.49,1-1.05,1.45-1.54a2.55,2.55,0,0,1,2.34-.72,3,3,0,0,1,2.66,3,3,3,0,0,1-.8,2c-.41.49-.73.89-1.13,1.38a1,1,0,0,0-.33.8v1.78c0,.32-.08.24.25.24a4.81,4.81,0,0,1,3.39,1.86c.64.81,1.29,1.69,1.94,2.58a9.7,9.7,0,0,0,1.69,2,17,17,0,0,0,3.15,2.18c2.5,1.37,5.09,2.66,7.59,4a19.67,19.67,0,0,1,2.82,1.69,4.37,4.37,0,0,1,1.94,3.39v.49c0,.08-.08.16-.16.08s-.16-.08-.24-.16a1.22,1.22,0,0,0-.73-.16c-3.31,0-6.62,0-9.85-.08-6.38,0-12.75,0-19.13.08h-8.88c-2,0-4,0-6.06.08a.29.29,0,0,0-.24.08c-.16.08-.24.16-.41.16s-.32.08-.32-.24a2.25,2.25,0,0,1,.08-.73,5.12,5.12,0,0,1,2-3.07c1.05-.72,2.18-1.37,3.31-2,2.42-1.29,4.85-2.5,7.27-3.79a18.27,18.27,0,0,0,2.9-2,9.71,9.71,0,0,0,1.62-2c.56-.81,1.13-1.61,1.69-2.34a5.54,5.54,0,0,1,3.8-2.1c.16,0,.16-.08.16-.16V197a2,2,0,0,1,.49-1.29c.4-.4.72-.89,1.13-1.29a2.51,2.51,0,0,0-1-4,2.36,2.36,0,0,0-2.67.65c-.24.32-.56.57-.81.89a2.12,2.12,0,0,0-.4.48.11.11,0,0,1-.16,0l-.24-.24C315.19,192,315.27,191.94,315.27,191.94Zm-16.31,24h14.37c2.9,0,5.89-.08,8.8-.08H340l-.72-.49c-3.32-2-6.63-3.95-9.94-6-1.85-1.13-3.63-2.26-5.49-3.39-1.45-.89-2.9-1.7-4.27-2.59-.25-.16-.33-.16-.57,0l-14.29,8.72c-1.94,1.21-4,2.42-5.89,3.64l-.09.08C298.71,215.92,298.88,215.92,299,215.92Zm17.76-25.27a2.85,2.85,0,0,1,1.78-.89h.16a3.22,3.22,0,0,0-1.21.24,2.27,2.27,0,0,0-1,.81,7.91,7.91,0,0,0-.89,1c-.08.08-.08.16-.16.16h0C315.83,191.62,316.23,191.13,316.72,190.65Zm2.58,5.24h0a18.8,18.8,0,0,0,1.62-1.93A18.8,18.8,0,0,1,319.3,195.89Z"/><path class="cls-10" d="M315.35,192.1c.4-.48.88-1,1.29-1.37a2.85,2.85,0,0,1,1.77-.89h.17a3.22,3.22,0,0,0-1.21.24,2.34,2.34,0,0,0-1,.81,7.91,7.91,0,0,0-.89,1c-.08.08-.08.16-.16.24Z"/><path class="cls-10" d="M320.92,194c-.57.64-1.05,1.29-1.62,1.94h.08C319.87,195.33,320.51,194.68,320.92,194Z"/></g><path id="top-3" data-name="top" class="cls-16" d="M304.71,247.28c-1.17-13.58-1.57-21.39-2.4-37.38a29.47,29.47,0,0,1,5.37-2s1.65,10.2,11.85,10,11.11-10,11.11-10c3.1.9,3.86.91,6.07,1.67.48,1.69-1.73,25.2-1.67,37.68Z"/></g><g id="Laag_43_kopie_3" data-name="Laag 43 kopie 3"><polyline class="cls-4" points="374.28 247.28 374.28 187.06 444.07 187.06 444.07 247.28"/><g id="SAdN2d-5" data-name="SAdN2d"><path class="cls-10" d="M404.11,191.94c.48-.49,1-1.05,1.45-1.54a2.55,2.55,0,0,1,2.34-.72,3,3,0,0,1,2.67,3,3,3,0,0,1-.81,2c-.41.49-.73.89-1.13,1.38a1,1,0,0,0-.33.8v1.78c0,.32-.08.24.25.24a4.81,4.81,0,0,1,3.39,1.86c.64.81,1.29,1.69,1.94,2.58a9.7,9.7,0,0,0,1.69,2,17,17,0,0,0,3.15,2.18c2.5,1.37,5.09,2.66,7.59,4a19.67,19.67,0,0,1,2.82,1.69,4.34,4.34,0,0,1,1.94,3.39v.49c0,.08-.08.16-.16.08s-.16-.08-.24-.16a1.22,1.22,0,0,0-.73-.16c-3.31,0-6.62,0-9.85-.08-6.38,0-12.75,0-19.13.08h-8.88c-2,0-4,0-6.06.08a.29.29,0,0,0-.24.08c-.16.08-.24.16-.41.16s-.32.08-.32-.24a2.25,2.25,0,0,1,.08-.73,5.12,5.12,0,0,1,2-3.07c1.05-.72,2.18-1.37,3.31-2,2.42-1.29,4.85-2.5,7.27-3.79a18.27,18.27,0,0,0,2.9-2,9.71,9.71,0,0,0,1.62-2c.56-.81,1.13-1.61,1.69-2.34a5.54,5.54,0,0,1,3.8-2.1c.16,0,.16-.08.16-.16V197a2,2,0,0,1,.49-1.29c.4-.4.72-.89,1.13-1.29a2.51,2.51,0,0,0-1-4,2.36,2.36,0,0,0-2.67.65c-.24.32-.56.57-.81.89a2.12,2.12,0,0,0-.4.48.11.11,0,0,1-.16,0l-.24-.24C404,192,404.11,191.94,404.11,191.94Zm-16.31,24h14.37c2.9,0,5.89-.08,8.8-.08h17.84l-.72-.49c-3.32-2-6.63-3.95-9.94-6-1.85-1.13-3.63-2.26-5.49-3.39-1.45-.89-2.9-1.7-4.27-2.59-.25-.16-.33-.16-.57,0l-14.29,8.72c-1.94,1.21-4,2.42-5.89,3.64l-.09.08C387.55,215.92,387.72,215.92,387.8,215.92Zm17.76-25.27a2.85,2.85,0,0,1,1.78-.89h.16a3.22,3.22,0,0,0-1.21.24,2.27,2.27,0,0,0-1,.81,7.91,7.91,0,0,0-.89,1c-.08.08-.08.16-.16.16h0C404.67,191.62,405.07,191.13,405.56,190.65Zm2.58,5.24h0a18.8,18.8,0,0,0,1.62-1.93A18.8,18.8,0,0,1,408.14,195.89Z"/><path class="cls-10" d="M404.19,192.1c.4-.48.88-1,1.29-1.37a2.85,2.85,0,0,1,1.77-.89h.17a3.22,3.22,0,0,0-1.21.24,2.34,2.34,0,0,0-1,.81,7.91,7.91,0,0,0-.89,1c-.08.08-.08.16-.16.24Z"/><path class="cls-10" d="M409.76,194c-.57.64-1.05,1.29-1.62,1.94h.08C408.71,195.33,409.35,194.68,409.76,194Z"/></g><path id="top-4" data-name="top" class="cls-17" d="M393.47,247.28c-1.17-13.58.5-21.69-.33-37.68,1.66-.69,1.38-1.25,3.38-1.67,0,0,6.85,4.4,10.9,4.4s12.06-4.4,12.06-4.4c2.44,1,2.36,1.26,4.07,2-.53,1.69.27,24.89.33,37.37Z"/></g><polygon class="cls-18" points="418.2 258.86 297.77 258.86 176.46 60.18 296.89 60.18 418.2 258.86"/><polygon class="cls-18" points="455.82 258.86 430.37 258.86 309.06 60.18 334.51 60.18 455.82 258.86"/></g><g id="Laag_42" data-name="Laag 42"><g id="SAdN2d-6" data-name="SAdN2d"><path class="cls-10" d="M190.79,125.71c.55-.55,1.1-1.19,1.65-1.73a2.85,2.85,0,0,1,2.65-.83,3.37,3.37,0,0,1,2.1,5.67c-.45.55-.82,1-1.28,1.56a1.18,1.18,0,0,0-.36.91v2c0,.36-.1.27.27.27a5.41,5.41,0,0,1,3.84,2.1c.73.92,1.47,1.92,2.2,2.93a11.79,11.79,0,0,0,1.92,2.29,19.42,19.42,0,0,0,3.57,2.47c2.83,1.55,5.76,3,8.6,4.57a23.78,23.78,0,0,1,3.2,1.92,5,5,0,0,1,2.19,3.84v.55c0,.09-.09.19-.18.09s-.18-.09-.28-.18a1.35,1.35,0,0,0-.82-.18c-3.75,0-7.5,0-11.16-.09-7.22,0-14.45,0-21.68.09H177.16c-2.29,0-4.57,0-6.86.09a.33.33,0,0,0-.27.09c-.19.09-.28.18-.46.18s-.37.1-.37-.27a2.55,2.55,0,0,1,.09-.82,5.74,5.74,0,0,1,2.29-3.48c1.19-.82,2.47-1.55,3.75-2.29,2.74-1.46,5.49-2.83,8.23-4.3a21.46,21.46,0,0,0,3.3-2.28,11.37,11.37,0,0,0,1.83-2.29c.64-.91,1.28-1.83,1.92-2.65a5.6,5.6,0,0,1,2.1-1.74,5.49,5.49,0,0,1,2.2-.64c.18,0,.18-.09.18-.18v-1.92a2.24,2.24,0,0,1,.55-1.47c.46-.45.82-1,1.28-1.46a2.81,2.81,0,0,0,.73-2.2,2.77,2.77,0,0,0-1.83-2.37,2.65,2.65,0,0,0-3,.73c-.27.36-.64.64-.91,1a2.44,2.44,0,0,0-.46.55.12.12,0,0,1-.18,0L191,126C190.7,125.8,190.79,125.71,190.79,125.71Zm-18.48,27.17h16.28c3.3,0,6.68-.09,10-.09h20.21l-.82-.55c-3.75-2.29-7.5-4.48-11.25-6.77-2.11-1.28-4.12-2.56-6.22-3.84-1.65-1-3.3-1.92-4.85-2.93-.28-.18-.37-.18-.64,0l-16.19,9.88c-2.2,1.37-4.49,2.75-6.68,4.12l-.09.09C172,152.88,172.22,152.88,172.31,152.88Zm20.13-28.63a3.27,3.27,0,0,1,2-1h.18a3.53,3.53,0,0,0-1.37.28,2.73,2.73,0,0,0-1.1.91,11.06,11.06,0,0,0-1,1.1c-.1.09-.1.18-.19.18h0A20,20,0,0,0,192.44,124.25Zm2.92,5.95h0a22.7,22.7,0,0,0,1.83-2.2A22.7,22.7,0,0,1,195.36,130.2Z"/><path class="cls-10" d="M190.88,125.9c.46-.55,1-1.1,1.46-1.56a3.32,3.32,0,0,1,2-1h.18a3.73,3.73,0,0,0-1.37.28,2.66,2.66,0,0,0-1.1.91,12.48,12.48,0,0,0-1,1.1c-.09.09-.09.18-.18.28Z"/><path class="cls-10" d="M197.19,128.09c-.64.73-1.19,1.47-1.83,2.2h.09C196,129.56,196.74,128.82,197.19,128.09Z"/></g><path class="cls-7" d="M213.66,192.31c3.38-32-4.39-48.67-4.39-48.67-4.85-.82-4.39-.82-6.13-2.47a10.54,10.54,0,0,1-8.78,4.76,11,11,0,0,1-8.69-4.12,20.18,20.18,0,0,1-4.94,1.83,126,126,0,0,0-2.47,48.76l17.47,1Z"/><path class="cls-19" d="M135.62,78.58h0c-2.88,1.1-5.25,5.23-3.86,8.57l21.17,45.73a3.54,3.54,0,0,0,2.53,2.08l3.35.7a3.53,3.53,0,0,0,4-4.76l-20-49.11C141.72,78.92,138,77.82,135.62,78.58Z"/><path class="cls-19" d="M201.9,120h0a4.6,4.6,0,0,0-5.51-3.39l-39.64,8.78a5.31,5.31,0,0,0-3.64,7.5l.11.23a5.31,5.31,0,0,0,6.16,2.83l39.13-10.44A4.61,4.61,0,0,0,201.9,120Z"/><path class="cls-20" d="M92.84,168.79l1.15,45h0L86.1,324.49c.15,5.95,4,10.7,8.69,10.7h0c4.65,0,8.4-4.75,8.38-10.7l12.15-127.27c0-6.88,3.22-18,3.2-11.2l9,136.11c0,5.95,3.74,10.71,8.39,10.71h0c4.65,0,8.54-4.76,8.69-10.71l-6-108.35.13-4.82,1-40.17Z"/><path class="cls-2" d="M95.19,144.12c-11.23,39.77-18,175.13-18,175.13l26.18,3.85,14.15-135.43.87,133.21,26.24-3.71s4-131.14-8.1-174"/><polygon class="cls-21" points="139.7 139.5 138.62 111.91 138.31 78.16 89.22 82.16 91.35 111.91 92.19 139.5 95.19 144.12 136.55 143.12 139.7 139.5"/><path class="cls-19" d="M115.27,73.59h0A17.64,17.64,0,0,1,97.43,56.08l-.18-15.67a17.55,17.55,0,0,1,17.24-17.79h0a17.56,17.56,0,0,1,17.79,17.26l.3,15.66A17.65,17.65,0,0,1,115.27,73.59Z"/><path class="cls-22" d="M112.39,38.26c6.7-16.21-6.5-22.91-17.89-9.68-4.6,5.33-7.27,22,3.66,32.36.78.74-2.9-10.59,1-12.63C112,49.76,106.57,39.06,112.39,38.26Z"/><rect class="cls-19" x="94.59" y="45.28" width="5.35" height="10.39" rx="2.67" transform="translate(-10.18 28.94) rotate(-16.09)"/><path class="cls-22" d="M112,40.5c-22.26-13.18,5.28-32,20.14-12.93,5.45,7.77,1.95,15.35.21,16.42C128.89,37.29,117.7,43.7,112,40.5Z"/><path class="cls-22" d="M101.73,49c-.83,2,1.87,2.84-.9,5.66,1-2.26-2-3.56-1.67-7.35,0-1.7.47-2.09.84-2.08S103.14,45.54,101.73,49Z"/><path class="cls-19" d="M91.79,82.39h0c2.89,1.1,5.26,5.23,3.87,8.57L75.49,132.69A3.54,3.54,0,0,1,73,134.77l-3.35.7a3.53,3.53,0,0,1-4-4.76l19-45.11C85.7,82.73,89.44,81.63,91.79,82.39Z"/><path class="cls-19" d="M115.25,139.91h0a4.59,4.59,0,0,1-5.24,3.78l-40.18-5.9a5.32,5.32,0,0,1-4.17-7.22l.09-.23a5.32,5.32,0,0,1,6-3.27l39.78,7.59A4.6,4.6,0,0,1,115.25,139.91Z"/></g><g id="Laag_49" data-name="Laag 49"><path class="cls-23" d="M108.36,150.3H58.43a1.73,1.73,0,0,0-1.6,2l3.09,31.25a1.79,1.79,0,0,0,1.73,1.58h43.49a1.78,1.78,0,0,0,1.72-1.58L110,152.35A1.73,1.73,0,0,0,108.36,150.3Zm-40.87,31a2.54,2.54,0,0,1-2.58-2.34l-.67-17.1a2.47,2.47,0,0,1,2.51-2.54,2.68,2.68,0,0,1,2.68,2.54l.49,17.1A2.35,2.35,0,0,1,67.49,181.26Zm8,0a2.49,2.49,0,0,1-2.54-2.34l-.38-17.1a2.52,2.52,0,0,1,2.55-2.54h0a2.62,2.62,0,0,1,2.64,2.54l.2,17.1A2.4,2.4,0,0,1,75.45,181.26Zm10.47-2.34a2.51,2.51,0,0,1-5,0l-.09-17.1a2.6,2.6,0,0,1,5.19,0Zm8,0a2.49,2.49,0,0,1-2.54,2.34,2.38,2.38,0,0,1-2.46-2.34l.2-17.1a2.62,2.62,0,0,1,2.63-2.54,2.51,2.51,0,0,1,2.55,2.54Zm8,0a2.55,2.55,0,0,1-2.59,2.34,2.34,2.34,0,0,1-2.42-2.34l.49-17.1a2.67,2.67,0,0,1,2.68-2.54,2.46,2.46,0,0,1,2.5,2.54Z"/><path class="cls-24" d="M109.36,155.75H57.78a2.38,2.38,0,0,1-2.3-2.11L55,149.05a2,2,0,0,1,1.94-2.2h53.18a1.94,1.94,0,0,1,1.94,2.2l-.44,4.59A2.37,2.37,0,0,1,109.36,155.75Z"/><rect class="cls-25" x="84.09" y="127.09" width="3.59" height="24.52" rx="1.79" transform="translate(33.77 -15.82) rotate(13.08)"/><circle class="cls-10" cx="83.11" cy="151.3" r="2.92"/></g></g></svg>