<?xml version="1.0" encoding="utf-8"?>
<!-- Generator: Adobe Illustrator 24.1.1, SVG Export Plug-In . SVG Version: 6.00 Build 0)  -->
<svg version="1.1" id="Layer_1" xmlns="http://www.w3.org/2000/svg" xmlns:xlink="http://www.w3.org/1999/xlink" x="0px" y="0px"
	 viewBox="0 0 566.9 566.9" style="enable-background:new 0 0 566.9 566.9;" xml:space="preserve">
<style type="text/css">
	.st0{fill:#3399FF;stroke:#000000;stroke-miterlimit:10;}
	.st1{fill:#FFFFFF;}
</style>
<rect y="0" class="st0" width="566.9" height="566.9"/>
<g>
	<path d="M70.9,401.3c31.6-110.4,63.1-220.2,94.7-330.4c110.2,31.6,220,63.1,330.5,94.8c-31.5,109.9-63.1,219.9-94.7,330.4
		C291.5,464.6,181.4,433,70.9,401.3z M457.4,187.4c-90.5-26-180.3-51.7-270.1-77.4c-25.8,90.2-51.6,180-77.3,269.8
		c90.3,25.9,180.1,51.6,270.1,77.4C405.9,367.1,431.6,277.5,457.4,187.4z"/>
	<path d="M246.7,355.1c-9.8-2.8-19.6-5.6-30.4-8.7c6-21.1,11.7-40.9,17.4-60.8l-0.2,0.1c10,2.9,20,5.7,30.6,8.8
		c6-21,11.8-41,17.5-60.9l-0.2,0.1c20.3,5.8,40.6,11.6,61,17.5l-0.1-0.2c-2.9,10.2-5.8,20.4-8.8,30.6l0.3-0.1
		c-10-2.9-20-5.7-30.6-8.8c-6,21-11.8,41-17.5,60.9l0.2-0.1c-9.9-2.8-19.9-5.7-30.6-8.8c-3.1,10.7-5.9,20.6-8.8,30.6L246.7,355.1z"
		/>
	<path d="M220.7,216.3c2.8-9.6,5.5-19.2,8.5-29.6c10.5,3,20,5.7,30.4,8.7c3-10.3,5.7-19.8,8.5-29.7c20.5,5.9,40.1,11.5,60.2,17.3
		c-2.8,9.6-5.5,19.1-8.5,29.6c-9.9-2.8-19.7-5.6-30-8.6c-3,10.6-5.8,20.2-8.5,29.8l0.2-0.1c-20.3-5.8-40.7-11.7-61-17.5L220.7,216.3
		z"/>
	<path d="M363.8,290c-2.8,9.8-5.6,19.7-8.7,30.3c9.7,2.8,19.2,5.5,29.1,8.3c-3,10.4-5.7,19.9-8.7,30.4c-20-5.7-39.7-11.4-59.4-17
		l0.1,0.2c5.8-20.3,11.6-40.6,17.5-61l-0.3,0.1c10.2,2.9,20.4,5.8,30.6,8.8L363.8,290z"/>
	<path d="M316,342.1c-5.6,19.7-11.3,39.4-17,59.4c-20.6-5.9-40.2-11.5-60.6-17.4c2.8-9.9,5.6-19.5,8.3-29l-0.2,0.1
		c10,2.9,20,5.7,30.6,8.8c3.3-11.3,6-21,8.8-30.6l-0.2,0.1c10.2,2.9,20.4,5.9,30.6,8.8L316,342.1z"/>
	<path d="M233.8,285.6c-19.7-5.6-39.4-11.3-59.5-17.1c5.8-20.3,11.5-40,17.4-60.6c9.9,2.8,19.5,5.6,29.1,8.3l-0.2-0.2
		c-2.9,10-5.7,20-8.8,30.7c11.2,3.2,20.7,5.9,30.4,8.7c-3,10.5-5.8,20.4-8.7,30.2H233.8z"/>
	<path d="M342.3,251.2c5.6-19.7,11.3-39.4,17-59.5c19.8,5.7,39.3,11.3,59.2,17c-2.8,9.7-5.5,19.2-8.5,29.5c-9.6-2.7-18.9-5.4-29-8.3
		c-3,10.5-5.8,20.2-8.6,30l0.3-0.1c-10.2-2.9-20.4-5.8-30.6-8.8L342.3,251.2z"/>
	<path d="M207.8,375.4c-19.9-5.7-39.3-11.3-59.2-17c5.7-19.8,11.2-39.2,17-59.1c9.5,2.7,19,5.4,29.4,8.4c-2.7,9.5-5.5,19-8.4,29.4
		c10.4,3,19.9,5.7,29.8,8.5C213.4,355.9,210.7,365.2,207.8,375.4z"/>
	<path d="M372.5,259.8c9.4,2.7,18.8,5.4,28.8,8.3c-2.9,10.2-5.7,19.9-8.7,30.2c-9.6-2.8-19.2-5.5-28.8-8.3l0.1,0.2
		c2.9-10.2,5.9-20.4,8.8-30.6L372.5,259.8z"/>
	<path d="M238.1,157.1c-2.9,9.9-5.5,19.1-8.3,28.9c-9.7-2.8-19.2-5.5-29.2-8.4c2.7-9.4,5.4-18.9,8.3-28.9
		C218.4,151.4,227.9,154.2,238.1,157.1z"/>
	<path d="M366.8,389.4c-2.8,9.9-5.5,19.2-8.3,29c-9.7-2.8-19.2-5.5-29.2-8.4c2.8-9.7,5.5-19.1,8.3-29
		C347.4,383.8,356.7,386.5,366.8,389.4z"/>
</g>
<g>
	<path class="st1" d="M293.5,323c0-38.1,0-75.9,0-113.5c3.7-1.1,17.3-1.2,22.8-0.2c0,11.1,0,22.4,0,33.4c1.9,1,3.1,0,4.2-0.3
		c5.6-1.5,11.2-2.9,17.1-2.7c7.1,0.2,13.8,2,19.5,6.4c3.6,2.8,5.8,6.8,7.2,11.1c1.8,5.8,3.3,11.8,3,18c-0.2,4.8-0.1,9.7,0,14.5
		c0,5-1,9.8-2.4,14.6c-3.5,11.7-11.6,18-23.4,20.2c-8.9,1.6-17.9,1.1-26.8,0.8C307.7,325.1,300.9,323.8,293.5,323z M316.5,261.7
		c-0.9,15.3-0.5,41,0.7,44.7c4.4,0,8.9,0.2,13.4-0.1c5.8-0.4,10.2-3.1,12-8.9c0.9-2.6,1.7-5.3,1.6-8.2c-0.1-4-0.2-8,0-12
		c0.3-4.9-0.7-9.5-2.8-13.9c-1.6-2.1-3.7-3.2-6.2-4C328.6,257.1,322.8,260.2,316.5,261.7z"/>
	<path class="st1" d="M33.7,322.7c0-37.9,0-75.6,0-113.7c3.6-0.8,7.1-0.3,10.5-0.4c3.5-0.1,7,0,11,0c0.8,11.6-0.1,23.1,0.5,34.1
		c1.5,1.3,2.5,0.3,3.6,0c6.1-1.7,12.1-3.5,18.5-3.2c8.2,0.5,15.7,2.3,21.3,9c2.5,3,4.3,6.3,5.4,10c2.9,9.8,3.6,19.9,2.9,30
		c-0.5,6.7-1.3,13.5-4,19.8c-2.2,5.2-5.5,9.3-10.6,12.1c-6.6,3.6-13.7,4.8-21,5c-4.7,0.2-9.3,0.2-14,0c-6.1-0.3-12.2-0.7-18.2-1.8
		C37.7,323.2,35.8,323.9,33.7,322.7z M77,304.8c0.7-0.8,1.8-2.1,2.9-3.3c1.8-2,2.9-4.4,3.5-7c1.3-6,1.3-12.2,0.9-18.3
		c-0.3-5.4-1-10.9-5.1-15.2c-8.1-4.8-15.8-1.5-23.5,1c-0.9,13.1-0.5,40,0.8,44.1C63.1,306.6,69.7,307,77,304.8z"/>
	<path class="st1" d="M424.4,358.1c-7.9,0-15.3,0-23.1,0c0.2-6.4,2.9-11.7,4.6-17.3c1.6-5.6,3.2-11.1,4.9-17.3c-5.8,0-11.4,0-17.2,0
		c-6.5-27.4-12.9-54.3-19.4-81.6c8.1,0,15.6,0,23.4,0c2.5,10.5,4.9,20.9,7.3,31.3s4.3,20.9,7.3,30.7c1.5,0.6,2.3,0.6,3.5,0.1
		c2.4-10.2,5-20.5,7.3-31c2.3-10.4,4.5-20.9,7.3-31.4c6.7,0,12.8,0,18.9,0c0.8,0,1.7-0.1,2.4,0.6c0.7,0.9,0.5,1.8,0.2,2.8
		c-2.7,11.1-5.4,22.1-8.1,33.2c-5.5,22.3-11,44.6-16.3,66.9C426.5,349.2,425.6,353.4,424.4,358.1z"/>
	<path class="st1" d="M204.5,241.8c8,0,15.5,0,23.4,0c2.5,10.4,5.2,20.8,7.4,31.2s4.7,20.8,6.9,30.5c1.7,1,2.5,0.8,3.9,0.5
		c4.7-20.5,9.4-41.3,14.2-62.3c7.5,0,14.4,0,21.3,0c1.1,1.7,0.6,3.3,0.2,4.9c-4.4,17.8-8.9,35.5-13.2,53.4
		c-4.6,19.1-9.1,38.2-13.7,57.7c-7.6,1.3-15.2,0.3-22.4,0.6c-1.6-1.5-1.1-2.7-0.7-4c2.5-8.2,5-16.5,7.6-24.7
		c0.6-1.9,1.1-3.8,1.3-6.3c-5.6,0-11.2,0-16.8,0C217.4,296,211,269.1,204.5,241.8z"/>
	<path class="st1" d="M530.9,290.6c-16.2,0-32.7,0-49.1,0c0.6,9.2,1,10.1,6.3,15.2c2.6,1.4,5.5,1.7,8.6,1.7c5.7-0.1,11.3,0,17-0.1
		c4.3-0.1,8.5-1.5,12.8-1c1.3,0.2,2.7-0.3,4.3,0.7c0.7,4.7,0.2,9.6,0.3,14.6c-4.8,1.8-9.6,1.9-14.2,2.6c-7.7,1.2-15.5,1.2-23.3,1.2
		c-6.8,0-13.2-1.3-19.2-4.2c-4.5-2.2-8.2-5.6-10.3-10.3c-2.9-6.6-4.8-13.4-4.8-20.6c0-3.3,0.1-6.7,0-10c-0.4-7.8,1.1-15.3,4.4-22.2
		c4.5-9.6,12.3-15.5,22.7-17.5c3.7-0.7,7.5-1.4,11.3-1.1c7.1,0.6,14.1,1.4,20.5,5c5.7,3.2,9.8,7.8,12.1,13.9
		c2.1,5.5,3.3,11.1,2.9,17c-0.2,3.1-0.1,6.3,0,9.5C533.1,286.7,533,288.5,530.9,290.6z M508.8,262.8c-7.2-7.6-14-8.3-22.8-2.6
		c-3.6,4.2-4.3,9.3-4.7,14.5c4.3,1,25.1,1,29.7,0C511.1,270.7,509.9,266.8,508.8,262.8z"/>
	<path class="st1" d="M171.4,241.7c7.7,0,14.4,0,21.2,0c1,3.8,1.4,70.6,0.5,81c-3.3,1.4-6.8,0.5-10.2,0.6c-3.5,0.2-7,0-9.9,0
		c-2.1-0.8-1.1-2.8-2.4-3.7c-0.3,0.1-0.9,0-1.3,0.3c-4.1,2.1-8.3,4.2-13,4.9c-6.6,0.9-13.3,1.2-19.7-1c-4.6-1.6-8-4.8-10.3-8.9
		c-3-5.1-4.2-10.8-4.8-16.6c-1.9-17.5-0.8-35.2-1-52.8c0-1.1,0.1-2.3,0.2-3.6c3.7-1.1,7.3-0.4,10.9-0.5c3.6-0.1,7.3,0,10.7,0
		c1.6,1.9,1,3.8,1,5.5c0.1,14.3,0,28.6,0,42.9c0,5.6,0.8,8.4,4.1,14.2c7.9,2.8,15.7,1.3,23.9-2.2c0-10.1,0-20,0-30
		C171.4,262,171.4,252.1,171.4,241.7z"/>
</g>
</svg>
