<svg version="1.1" id="Layer_1" xmlns="http://www.w3.org/2000/svg" xmlns:xlink="http://www.w3.org/1999/xlink" x="0px" y="0px"
	 width="100%" viewBox="0 0 256 256" enable-background="new 0 0 256 256" xml:space="preserve">
<path fill="#000000" opacity="1.000000" stroke="none" 
	d="
M1.000000,52.000000 
	C1.000000,35.020283 1.000000,18.040564 1.000000,1.030423 
	C86.211235,1.030423 171.422485,1.030423 257.000000,1.030423 
	C257.000000,20.686047 257.000000,40.374367 256.664307,60.427094 
	C255.186783,60.857189 254.013702,60.776020 252.907974,61.011353 
	C242.345352,63.259407 231.723114,65.281769 221.263229,67.940247 
	C213.613602,69.884460 207.492691,68.511162 201.617203,63.038605 
	C194.074661,56.013279 185.814606,49.764336 177.987808,43.036495 
	C169.946472,36.124256 161.784988,35.887409 152.794205,41.354290 
	C144.266190,46.539780 135.300461,50.999458 126.635635,55.967419 
	C115.227921,62.507999 103.875877,69.149666 92.603371,75.920143 
	C88.033348,78.664986 85.109024,82.968071 85.735733,88.351845 
	C86.367790,93.781609 89.767982,97.830841 94.970230,99.899551 
	C100.002121,101.900543 104.768761,100.545784 109.359367,98.200127 
	C120.181282,92.670448 130.890594,86.902863 141.866409,81.697418 
	C150.892807,77.416519 157.003143,78.848480 164.038101,85.787178 
	C180.399551,101.924744 196.866196,117.957237 213.088242,134.233597 
	C218.199814,139.362259 223.882248,141.699524 231.050934,140.762848 
	C239.786713,139.621399 248.438583,138.068741 257.000000,136.000000 
	C257.000000,176.297668 257.000000,216.595337 257.000000,256.946503 
	C171.777832,256.946503 86.555618,256.946503 1.000000,256.946503 
	C1.000000,217.979736 1.000000,178.958527 1.360249,139.536697 
	C3.146511,139.588089 4.586091,140.001617 5.996267,140.498581 
	C13.467561,143.131516 13.492711,143.158493 18.130222,136.645340 
	C30.835402,118.801552 59.096252,121.385620 66.215263,140.225952 
	C67.134048,142.657501 69.038895,143.763489 71.171661,144.829819 
	C76.429657,147.458649 80.336777,151.464645 82.588547,156.910568 
	C83.535721,159.201309 84.898949,160.746689 87.190277,161.810928 
	C93.018875,164.518127 97.147820,168.955276 99.459679,174.978867 
	C100.341827,177.277313 101.733208,178.863724 104.038483,179.924500 
	C114.029610,184.521896 118.602989,192.859833 118.990677,203.418961 
	C119.136490,207.390564 120.720009,209.971008 123.310799,212.467499 
	C128.529587,217.496292 134.298019,218.138855 138.855179,214.108231 
	C143.747040,209.781570 143.823471,203.910690 138.901764,198.147507 
	C135.440063,194.093964 131.732178,190.249725 128.298523,186.173630 
	C127.144562,184.803757 125.259544,183.489182 126.073875,181.076645 
	C128.748230,181.091354 130.111389,182.928223 131.623642,184.386185 
	C136.901428,189.474365 141.888535,194.886917 147.395065,199.709198 
	C154.287155,205.744873 163.302948,202.806168 165.194992,194.167038 
	C166.214645,189.511353 163.612610,186.198853 160.579956,183.211151 
	C155.832382,178.533905 150.967010,173.976227 146.220200,169.298248 
	C144.887360,167.984726 143.231415,166.693436 143.615646,164.075226 
	C146.896378,164.559845 148.886597,166.650513 150.966415,168.426056 
	C157.175858,173.727036 163.250198,179.186050 169.442749,184.507141 
	C172.999222,187.563110 176.962448,188.772247 181.426300,186.434341 
	C187.702377,183.147339 189.042511,175.884872 184.176483,169.895096 
	C180.083237,164.856552 175.561844,160.167984 171.326416,155.241577 
	C169.897949,153.580063 168.113037,151.960419 168.240677,149.250244 
	C171.280563,149.074524 172.786224,151.036240 174.426575,152.530136 
	C179.474426,157.127335 184.161255,162.155640 189.456284,166.437820 
	C195.860550,171.617065 204.966110,167.923615 206.324646,159.855652 
	C207.100281,155.249527 204.458145,151.931458 201.449539,148.917450 
	C186.615204,134.056366 171.787155,119.188843 156.906006,104.374702 
	C149.153687,96.657288 143.969162,95.840897 134.016174,100.428291 
	C125.545898,104.332298 117.158813,108.444153 108.542099,111.996323 
	C97.358154,116.606804 84.478645,112.138069 78.051018,101.879898 
	C70.991348,90.613014 73.298744,76.023643 83.774567,67.751648 
	C92.568451,60.807751 102.621872,55.831638 112.303825,50.285412 
	C114.247963,49.171726 116.696304,48.579926 117.824829,45.653843 
	C110.805061,39.430145 102.571373,37.143646 93.465668,38.854877 
	C79.108017,41.553093 66.633156,48.864597 54.580963,56.567207 
	C44.670654,62.900936 35.005009,63.661533 24.218189,59.588047 
	C16.616346,56.717319 9.051974,53.564114 1.000000,52.000000 
M37.014141,138.433670 
	C30.236549,140.803253 26.845604,146.242920 24.637278,152.533798 
	C21.249638,162.184189 27.491232,169.319534 37.445354,167.349670 
	C39.037590,167.034592 40.578697,166.137161 42.690376,167.391327 
	C41.652920,172.328903 38.476284,177.505127 43.404743,182.484268 
	C48.207218,187.336121 53.768139,183.515518 59.368919,184.184937 
	C58.181366,189.943542 55.073685,195.499603 60.722454,200.241592 
	C65.873230,204.565491 71.446838,200.511078 77.202530,201.054962 
	C76.307755,203.727158 75.483635,205.872894 74.871307,208.077454 
	C73.184608,214.150146 76.666817,219.740707 82.896240,220.534088 
	C90.503899,221.503021 97.122452,219.110123 102.142113,213.288086 
	C106.018997,208.791504 107.051949,203.407486 104.518738,197.921707 
	C102.011581,192.492340 97.204239,190.495834 91.427872,190.569641 
	C90.297165,190.584076 89.102036,191.093048 87.935287,189.677475 
	C88.364784,185.172882 88.677597,180.408997 85.069077,176.383469 
	C81.492355,172.393417 76.575050,172.461182 71.824074,171.861725 
	C71.724411,170.906937 71.610603,170.266632 71.597580,169.624283 
	C71.400505,159.908249 68.035385,156.034409 58.369926,155.237839 
	C55.041065,154.963486 54.795425,153.352356 54.691654,150.723373 
	C54.305351,140.936783 47.308868,135.850021 37.014141,138.433670 
z"/>
</svg>