<?xml version="1.0" encoding="UTF-8"?>
<svg width="220px" height="220px" viewBox="0 0 220 220" version="1.1" xmlns="http://www.w3.org/2000/svg" xmlns:xlink="http://www.w3.org/1999/xlink">
    <title>buybye-icon-primary</title>
    <g id="buybye-icon-primary" stroke="none" stroke-width="1" fill="none" fill-rule="evenodd">
        <polygon id="border-left" fill="#1E8FFF" transform="translate(110.000000, 120.000000) scale(-1, 1) translate(-110.000000, -120.000000) " points="0 200 0 220 220 220 220 20 200 20 200 200"></polygon>
        <polygon id="border-right" fill="#1E8FFF" transform="translate(110.000000, 100.000000) scale(-1, 1) translate(-110.000000, -100.000000) " points="0 0 220 0 220 20 20 20 20 200 0 200"></polygon>
        <polygon id="bottom-right" fill="#1E8FFF" points="160 160 180 160 180 180 160 180"></polygon>
        <polygon id="bottom-mid" fill="#1E8FFF" points="120 140 140 140 140 180 100 180 100 160 120 160"></polygon>
        <polygon id="bottom-left" fill="#1E8FFF" points="40 140 60 140 60 160 80 160 80 180 40 180"></polygon>
        <polygon id="mid-right-2" fill="#1E8FFF" points="140 100 160 100 160 120 180 120 180 140 140 140"></polygon>
        <polygon id="mid-right" fill="#1E8FFF" points="160 80 180 80 180 100 160 100"></polygon>
        <polygon id="mid-mid" fill="#1E8FFF" points="100 80 140 80 140 100 120 100 120 140 100 140 100 160 80 160 80 120 100 120"></polygon>
        <polygon id="mid-left" fill="#1E8FFF" points="40 80 60 80 60 100 80 100 80 120 40 120"></polygon>
        <polygon id="top-right" fill="#1E8FFF" points="140 40 180 40 180 60 160 60 160 80 140 80"></polygon>
        <polygon id="top-mid" fill="#1E8FFF" points="80 40 100 40 120 40 120 60 100 60 100 80 60 80 60 60 80 60"></polygon>
        <polygon id="top-left" fill="#1E8FFF" points="40 40 60 40 60 60 40 60"></polygon>
    </g>
</svg>